STARTFONT 2.1
FONT -Monotype-Courier-Regular-I-Normal--50-360-100-100-M-280-iso8859-5
SIZE 36 100 100
FONTBOUNDINGBOX 39 50 -2 -10

STARTPROPERTIES 24
FOUNDRY "Monotype"
FAMILY_NAME "Courier"
WEIGHT_NAME "Regular"
SLANT "I"
SETWIDTH_NAME "Normal"
ADD_STYLE_NAME ""
PIXEL_SIZE 50
POINT_SIZE 360
RESOLUTION_X 100
RESOLUTION_Y 100
SPACING "M"
AVERAGE_WIDTH 280
CHARSET_REGISTRY "iso8859"
CHARSET_ENCODING "5"
FACE_NAME "Courier Inclined ISO Latin Cyrillic"
_DEC_DEVICE_FONTNAMES "PS=courier-in-latcyrillic"
COPYRIGHT "Copyright (c) 1993 Monotype Typography Ltd."
CAP_HEIGHT 30
X_HEIGHT 22
WEIGHT 10
QUAD_WIDTH 31
DEFAULT_CHAR 160
FONT_DESCENT 11
FONT_ASCENT 42
ENDPROPERTIES

CHARS 191

STARTCHAR space
ENCODING 32
SWIDTH 600 0
DWIDTH 30 0
BBX 0 0 0 0
BITMAP
ENDCHAR

STARTCHAR exclam
ENCODING 33
SWIDTH 600 0
DWIDTH 30 0
BBX 14 32 10 -1
BITMAP
0038
0078
0078
0070
0070
00F0
00F0
00E0
00E0
00E0
00E0
01C0
01C0
01C0
01C0
0180
0180
0380
0380
0300
0300
0000
0000
0000
0000
0000
0000
0E00
3F00
3F00
3F00
1E00
ENDCHAR

STARTCHAR quotedbl
ENCODING 34
SWIDTH 600 0
DWIDTH 30 0
BBX 20 14 11 16
BITMAP
3F0FE0
3F0FC0
3E0FC0
3E0FC0
3E0F80
3C0F80
3C0F80
7C0F00
780F00
780E00
780E00
700E00
700C00
200000
ENDCHAR

STARTCHAR numbersign
ENCODING 35
SWIDTH 600 0
DWIDTH 30 0
BBX 26 36 5 -3
BITMAP
00030400
00070C00
00060C00
00060C00
00061800
000C1800
000C1800
000C3000
000C3000
00183000
00183000
00186000
00306000
07FFFF00
07FFFF00
0030C000
0060C000
0060C000
00618000
00C18000
00C18000
3FFFFC00
3FFFF800
01830000
01830000
01860000
03060000
03060000
030C0000
030C0000
060C0000
060C0000
06180000
0C180000
0C180000
0C100000
ENDCHAR

STARTCHAR dollar
ENCODING 36
SWIDTH 600 0
DWIDTH 30 0
BBX 26 38 5 -5
BITMAP
0000C000
0000C000
0000C000
00018000
0007F000
001FFD80
00781F00
00E00700
01C00300
01800300
03000200
03000000
03000000
03000000
03800000
01F00000
00FF0000
001FE000
0001F800
00003C00
00001C00
00000C00
00000C00
00000C00
30001C00
30001800
38003000
3C007000
3F03C000
67FF8000
01FC0000
00600000
00600000
00600000
00600000
00C00000
00C00000
00C00000
ENDCHAR

STARTCHAR percent
ENCODING 37
SWIDTH 600 0
DWIDTH 30 0
BBX 25 32 7 -1
BITMAP
001C0000
007F0000
00C18000
01008000
0300C000
0200C000
0600C000
06008000
06018000
02010000
03060000
01FC0000
00700600
00003E00
0001E000
000F0000
00780000
07C00000
3E000000
30078000
001FC000
00306000
00603000
00C03000
00803000
00803000
01802000
01806000
00804000
00C18000
007F0000
001C0000
ENDCHAR

STARTCHAR ampersand
ENCODING 38
SWIDTH 600 0
DWIDTH 30 0
BBX 23 27 6 -1
BITMAP
0007C0
001FF8
003870
007000
006000
00C000
00C000
00C000
00C000
00E000
006000
006000
00F000
03F000
07381C
0C183C
1C1870
181C60
300CC0
300EC0
300780
300700
380700
380F80
1C3DF0
0FF1E0
07E000
ENDCHAR

STARTCHAR quoteright
ENCODING 39
SWIDTH 600 0
DWIDTH 30 0
BBX 16 15 9 15
BITMAP
00FE
00FC
01F8
01F0
03F0
03E0
07C0
0780
0F80
0F00
1E00
1C00
3C00
3800
3000
ENDCHAR

STARTCHAR parenleft
ENCODING 40
SWIDTH 600 0
DWIDTH 30 0
BBX 15 37 16 -7
BITMAP
0008
0018
0038
0070
0060
00C0
01C0
0380
0380
0700
0700
0E00
0E00
1C00
1C00
3800
3800
3800
3800
7000
7000
7000
7000
7000
7000
7000
7000
7000
3000
3800
3800
3800
1800
1C00
1C00
0C00
0C00
ENDCHAR

STARTCHAR parenright
ENCODING 41
SWIDTH 600 0
DWIDTH 30 0
BBX 16 37 5 -7
BITMAP
0060
0070
0070
0030
0038
0038
0038
0018
001C
001C
001C
001C
001C
001C
001C
001C
001C
001C
003C
0038
0038
0038
0070
0070
00E0
00E0
00C0
01C0
0380
0380
0700
0600
0E00
1C00
1800
3000
2000
ENDCHAR

STARTCHAR asterisk
ENCODING 42
SWIDTH 600 0
DWIDTH 30 0
BBX 22 18 9 12
BITMAP
001800
001800
001800
001800
001000
003000
303030
3E31F0
1FFFC0
03FE00
00F000
00F800
01B800
031C00
061C00
0C0E00
180E00
100600
ENDCHAR

STARTCHAR plus
ENCODING 43
SWIDTH 600 0
DWIDTH 30 0
BBX 26 25 5 1
BITMAP
00018000
00030000
00030000
00030000
00030000
00070000
00060000
00060000
00060000
00060000
000C0000
3FFFFF80
3FFFFF00
000C0000
000C0000
00180000
00180000
00180000
00180000
00380000
00300000
00300000
00300000
00300000
00200000
ENDCHAR

STARTCHAR comma
ENCODING 44
SWIDTH 600 0
DWIDTH 30 0
BBX 17 14 7 -7
BITMAP
00FC00
00FC00
01F800
01F000
03E000
03E000
07C000
078000
0F0000
0F0000
1E0000
1C0000
380000
380000
ENDCHAR

STARTCHAR minus
ENCODING 45
SWIDTH 600 0
DWIDTH 30 0
BBX 26 2 5 13
BITMAP
3FFFFF80
3FFFFF00
ENDCHAR

STARTCHAR period
ENCODING 46
SWIDTH 600 0
DWIDTH 30 0
BBX 10 7 11 -1
BITMAP
0E00
3F00
3F80
7F80
7F00
3F00
1C00
ENDCHAR

STARTCHAR slash
ENCODING 47
SWIDTH 600 0
DWIDTH 30 0
BBX 30 38 3 -4
BITMAP
00000010
00000030
00000070
00000060
000000C0
000001C0
00000180
00000300
00000600
00000600
00000C00
00001800
00001800
00003000
00006000
0000E000
0000C000
00018000
00038000
00030000
00060000
000E0000
000C0000
00180000
00380000
00300000
00600000
00E00000
00C00000
01800000
03800000
03000000
06000000
0E000000
0C000000
18000000
38000000
30000000
ENDCHAR

STARTCHAR zero
ENCODING 48
SWIDTH 600 0
DWIDTH 30 0
BBX 25 32 6 -1
BITMAP
0007E000
001FF000
00383800
00601C00
00C00C00
01800E00
03800600
03000600
06000600
06000600
0E000600
0C000600
0C000600
0C000600
18000C00
18000C00
18000C00
18000C00
30001C00
30001800
30001800
30001800
30003000
30003000
30006000
30006000
3800C000
18018000
1C038000
0E0E0000
07FC0000
03F00000
ENDCHAR

STARTCHAR one
ENCODING 49
SWIDTH 600 0
DWIDTH 30 0
BBX 22 31 4 0
BITMAP
000060
0003C0
003FC0
00FCC0
01C0C0
000180
000180
000180
000180
000180
000300
000300
000300
000300
000300
000600
000600
000600
000600
000C00
000C00
000C00
000C00
000C00
001800
001800
001800
001800
001800
3FFFF8
3FFFF0
ENDCHAR

STARTCHAR two
ENCODING 50
SWIDTH 600 0
DWIDTH 30 0
BBX 28 31 3 0
BITMAP
0001F800
0007FE00
001E0700
00380380
007001C0
00E000C0
00C000C0
018000C0
000000C0
000000C0
00000180
00000380
00000700
00000E00
00001C00
00003800
00007000
0000C000
00038000
00070000
000E0000
00380000
00700000
00E00000
01800000
07000000
0E000000
18000C00
30000C00
3FFFF800
7FFFF800
ENDCHAR

STARTCHAR three
ENCODING 51
SWIDTH 600 0
DWIDTH 30 0
BBX 27 32 4 -1
BITMAP
0003F800
000FFE00
003C0F00
00700300
00C00380
00000180
00000180
00000180
00000180
00000300
00000300
00000600
00001C00
0007F800
000FE000
0001F000
00003800
00001C00
00000E00
00000600
00000600
00000600
00000600
00000600
00000C00
00000C00
00001800
30003000
3800E000
1F03C000
0FFF0000
01FC0000
ENDCHAR

STARTCHAR four
ENCODING 52
SWIDTH 600 0
DWIDTH 30 0
BBX 23 30 6 0
BITMAP
000078
0000F8
000198
000398
000330
000630
000C30
001C30
003830
003060
006060
00C060
01C060
018060
0300C0
0600C0
0C00C0
1C00C0
180180
300180
7FFFF0
7FFFF0
000180
000300
000300
000300
000300
000700
00FFC0
00FFC0
ENDCHAR

STARTCHAR five
ENCODING 53
SWIDTH 600 0
DWIDTH 30 0
BBX 26 31 4 -1
BITMAP
007FFF80
007FFF80
00600000
00600000
00C00000
00C00000
00C00000
00C00000
00C00000
01800000
018FE000
01FFF800
01F03C00
01801C00
00000E00
00000600
00000600
00000600
00000600
00000600
00000600
00000C00
00000C00
00001C00
00001800
20003000
70007000
3C00E000
1F078000
07FF0000
01FC0000
ENDCHAR

STARTCHAR six
ENCODING 54
SWIDTH 600 0
DWIDTH 30 0
BBX 26 32 8 -1
BITMAP
00007E00
0003FF00
000F8200
003C0000
00700000
00E00000
01C00000
03800000
03000000
06000000
0E000000
0C000000
18000000
183F0000
18FFC000
31C1E000
3380E000
36007000
3C003000
38003000
38003000
30003000
30003000
30007000
30006000
30006000
3000C000
18018000
1C038000
0E0E0000
07FC0000
03F00000
ENDCHAR

STARTCHAR seven
ENCODING 55
SWIDTH 600 0
DWIDTH 30 0
BBX 23 30 9 0
BITMAP
1FFFF8
3FFFF8
300018
300038
300030
000070
000060
0000C0
0000C0
000180
000180
000300
000300
000600
000600
000C00
000C00
001800
003800
003000
006000
006000
00C000
00C000
018000
018000
030000
030000
060000
060000
ENDCHAR

STARTCHAR eight
ENCODING 56
SWIDTH 600 0
DWIDTH 30 0
BBX 26 32 5 -1
BITMAP
0003F000
001FF800
00381E00
00600E00
00C00700
01800300
01800300
03000300
03000300
03000600
03000600
03800C00
01803800
01E0F000
007FC000
00FFC000
01E0E000
07007000
0E003800
0C001800
18001800
18001800
30001800
30001800
30003800
30003000
38006000
1800E000
1C01C000
0F078000
07FE0000
01F80000
ENDCHAR

STARTCHAR nine
ENCODING 57
SWIDTH 600 0
DWIDTH 30 0
BBX 26 32 5 -1
BITMAP
0003F000
000FF800
001C1C00
00300E00
00600600
00C00700
00C00300
01800300
01800300
03000300
03000300
03000300
03000700
03000F00
03801F00
03803B00
01C07300
00E1E700
00FF8600
003E0600
00000E00
00000C00
00001C00
00001800
00003000
00007000
0000E000
00038000
000F0000
103C0000
3FF00000
1FC00000
ENDCHAR

STARTCHAR colon
ENCODING 58
SWIDTH 600 0
DWIDTH 30 0
BBX 13 22 11 -1
BITMAP
01C0
07E0
07F0
0FF0
0FE0
07E0
0380
0000
0000
0000
0000
0000
0000
0000
0000
0E00
3F00
3F80
7F80
7F00
3F00
1C00
ENDCHAR

STARTCHAR semicolon
ENCODING 59
SWIDTH 600 0
DWIDTH 30 0
BBX 18 26 8 -5
BITMAP
000E00
003F00
003F80
007F80
007F00
003F00
001C00
000000
000000
000000
000000
000000
000000
000000
01F800
03F000
07E000
07C000
0FC000
0F8000
1F0000
1E0000
3C0000
380000
780000
700000
ENDCHAR

STARTCHAR less
ENCODING 60
SWIDTH 600 0
DWIDTH 30 0
BBX 29 25 4 2
BITMAP
00000030
000000F0
000003C0
00000F00
00003C00
0000F000
0003C000
000F0000
003C0000
00F00000
03C00000
0F000000
3C000000
1E000000
0F000000
03C00000
01F00000
00780000
003E0000
000F0000
0003C000
0001E000
00007800
00003E00
00000E00
ENDCHAR

STARTCHAR equal
ENCODING 61
SWIDTH 600 0
DWIDTH 30 0
BBX 30 9 3 10
BITMAP
0FFFFFF0
1FFFFFF0
00000000
00000000
00000000
00000000
00000000
3FFFFFE0
3FFFFFE0
ENDCHAR

STARTCHAR greater
ENCODING 62
SWIDTH 600 0
DWIDTH 30 0
BBX 29 25 3 2
BITMAP
01000000
03C00000
01F00000
00780000
003E0000
000F0000
0003C000
0001E000
00007800
00003E00
00000F00
000007C0
000001E0
000003C0
00000F00
00003C00
0000F000
0003C000
000F0000
003C0000
00F00000
03C00000
0F000000
3C000000
70000000
ENDCHAR

STARTCHAR question
ENCODING 63
SWIDTH 600 0
DWIDTH 30 0
BBX 21 30 10 -1
BITMAP
00FE00
07FF80
1F03C0
3801C0
3000E0
300060
300060
000060
000060
000060
0000C0
0001C0
000780
001E00
007C00
01E000
018000
018000
030000
030000
000000
000000
000000
000000
000000
1F8000
3F8000
3F8000
3F8000
1F0000
ENDCHAR

STARTCHAR at
ENCODING 64
SWIDTH 600 0
DWIDTH 30 0
BBX 25 35 5 -3
BITMAP
0003F000
000FF800
003C1C00
00700E00
00E00600
00C00600
01800600
03800600
03000600
07000600
06001C00
0601FC00
0C03EC00
0C0F0C00
0C0C0C00
0C181800
1C181800
18301800
18301800
18303000
18383000
301C3000
301FF800
3007F000
30000000
30000000
30000000
30000000
38000000
18000000
18000000
1C00C000
0F078000
07FF0000
01F80000
ENDCHAR

STARTCHAR A
ENCODING 65
SWIDTH 600 0
DWIDTH 30 0
BBX 32 29 0 0
BITMAP
000FFF00
000FFF00
00001B00
00003300
00003380
00006180
00006180
0000C180
0001C180
00018180
000301C0
000300C0
000600C0
000600C0
000C00C0
001800C0
001800E0
003FFFE0
003FFFE0
00600060
00600060
00C00060
01800070
01800030
03000030
03000030
06000030
3FF007FE
3FF007FE
ENDCHAR

STARTCHAR B
ENCODING 66
SWIDTH 600 0
DWIDTH 30 0
BBX 31 29 1 0
BITMAP
00FFFF80
00FFFFE0
001800F0
00180038
00180038
00180018
00300018
00300018
00300018
00300030
00300070
006000E0
00600780
007FFF00
007FFF80
00C003E0
00C000E0
00C00070
00C00030
00800030
01800030
01800030
01800060
01800060
010000C0
030001C0
03000780
3FFFFE00
3FFFF800
ENDCHAR

STARTCHAR C
ENCODING 67
SWIDTH 600 0
DWIDTH 30 0
BBX 30 30 4 -1
BITMAP
0003FC00
000FFF30
003C07B0
007001F0
00E000F0
01800070
03000060
07000060
06000060
0C000000
0C000000
1C000000
18000000
18000000
18000000
38000000
30000000
30000000
30000000
30000000
30000000
30000000
38000000
18000300
1C000700
0E000E00
07001C00
03C0F000
01FFC000
007F0000
ENDCHAR

STARTCHAR D
ENCODING 68
SWIDTH 600 0
DWIDTH 30 0
BBX 31 29 2 0
BITMAP
01FFFE00
01FFFF80
003003C0
003000E0
00300070
00600030
00600038
00600018
00600018
00600018
00C00018
00C00018
00C00018
00C00018
00C00030
01800030
01800030
01800030
01800060
03800060
030000C0
030000C0
03000180
03000300
06000600
06001C00
06007800
3FFFF000
3FFF8000
ENDCHAR

STARTCHAR E
ENCODING 69
SWIDTH 600 0
DWIDTH 30 0
BBX 32 29 1 0
BITMAP
01FFFFFC
01FFFFFC
0018000C
00180018
00300018
00300018
00300018
00300018
00300010
00601800
00601800
00603000
00603000
007FF000
00FFF000
00C03000
00C06000
00C06000
01C06000
01800020
01800060
01800060
01800060
038000C0
030000C0
030000C0
030000C0
3FFFFF80
3FFFFF80
ENDCHAR

STARTCHAR F
ENCODING 70
SWIDTH 600 0
DWIDTH 30 0
BBX 33 29 3 0
BITMAP
01FFFFFE00
01FFFFFE00
0018000600
0018000600
0018000C00
0030000C00
0030000C00
0030000C00
0030000800
0030180000
0060180000
0060180000
0060300000
007FF00000
007FF00000
00C0300000
00C0300000
00C0600000
00C0600000
01C0000000
0180000000
0180000000
0180000000
0180000000
0380000000
0300000000
0300000000
3FFF000000
3FFF000000
ENDCHAR

STARTCHAR G
ENCODING 71
SWIDTH 600 0
DWIDTH 30 0
BBX 30 30 3 -1
BITMAP
0001FC00
000FFF98
001E03F0
007800F0
00E00070
01C00070
03800030
03000060
06000000
06000000
0C000000
0C000000
18000000
18000000
18000000
18000000
18000000
3001FFE0
3001FFE0
30000180
30000180
30000300
30000300
38000300
18000300
1C000300
0F000600
07C03E00
01FFF800
007F8000
ENDCHAR

STARTCHAR H
ENCODING 72
SWIDTH 600 0
DWIDTH 30 0
BBX 32 29 2 0
BITMAP
00FF83FE
00FF83FE
00300030
00300020
00300020
00300060
00300060
00600060
00600040
00600040
006000C0
006000C0
00C00080
00FFFF80
00FFFF80
00800180
01800180
01800300
01800300
01800300
01000300
03000300
03000600
03000600
03000600
02000600
06000600
7FE0FFC0
7FE0FFC0
ENDCHAR

STARTCHAR I
ENCODING 73
SWIDTH 600 0
DWIDTH 30 0
BBX 28 29 4 0
BITMAP
00FFFFC0
00FFFFC0
0000C000
00018000
00018000
00018000
00018000
00018000
00030000
00030000
00030000
00030000
00070000
00060000
00060000
00060000
00060000
000C0000
000C0000
000C0000
000C0000
000C0000
00180000
00180000
00180000
00180000
00180000
3FFFF800
3FFFF000
ENDCHAR

STARTCHAR J
ENCODING 74
SWIDTH 600 0
DWIDTH 30 0
BBX 34 30 3 -1
BITMAP
0001FFFF00
0001FFFF00
000000C000
0000018000
0000018000
0000018000
0000018000
0000038000
0000030000
0000030000
0000030000
0000030000
0000060000
0000060000
0000060000
0000060000
0C00060000
0C000C0000
18000C0000
18000C0000
18000C0000
18000C0000
1800180000
3000180000
3000300000
3800600000
1E00C00000
0F03800000
07FF000000
01F8000000
ENDCHAR

STARTCHAR K
ENCODING 75
SWIDTH 600 0
DWIDTH 30 0
BBX 34 29 2 0
BITMAP
00FFE0FF80
00FFC0FF80
0018001C00
0018003800
001800E000
001801C000
0030038000
00300E0000
00301C0000
0030380000
0030E00000
0061C00000
0063C00000
0067E00000
007C700000
00F8380000
00F01C0000
00C00C0000
00C00E0000
00C0060000
0180060000
0180070000
0180030000
0180030000
0180030000
0300030000
0300038000
3FF801F000
3FF801F000
ENDCHAR

STARTCHAR L
ENCODING 76
SWIDTH 600 0
DWIDTH 30 0
BBX 29 29 2 0
BITMAP
01FFF800
01FFF800
00060000
00060000
00060000
000C0000
000C0000
000C0000
000C0000
001C0000
00180000
00180000
00180000
00180000
00300000
00300000
00300000
00300020
00300060
00600060
00600060
00600060
006000E0
006000C0
00C000C0
00C000C0
00C000C0
3FFFFF80
7FFFFF80
ENDCHAR

STARTCHAR M
ENCODING 77
SWIDTH 600 0
DWIDTH 30 0
BBX 38 29 -1 0
BITMAP
00FE0003F0
00FE0007F0
0036000D80
0036000D80
0037001980
0033003980
0063003300
0063006300
0063006300
006380C300
0061818700
00C1818600
00C1830600
00C1C70600
00C0C60600
00C0CC0C00
0180DC0C00
0180D80C00
0180F00C00
0180700C00
0180001800
0300001800
0300001800
0300001800
0300001800
0700003000
0600003000
3FF007FE00
3FF007FE00
ENDCHAR

STARTCHAR N
ENCODING 78
SWIDTH 600 0
DWIDTH 30 0
BBX 35 29 1 0
BITMAP
03F801FF80
03FC01FF80
003C000C00
003C001800
006E001800
0066001800
0066001800
0067001800
0063003000
00C3803000
00C1803000
00C1803000
00C1C07000
00C0C06000
0180C06000
0180E06000
0180606000
018060C000
038030C000
030030C000
030038C000
030018C000
0300198000
06001D8000
06000D8000
06000D8000
06000F8000
3FF0070000
3FE0070000
ENDCHAR

STARTCHAR O
ENCODING 79
SWIDTH 600 0
DWIDTH 30 0
BBX 30 30 3 -1
BITMAP
0001FC00
000FFF00
001E0780
007803C0
00E001C0
01C000E0
03800060
03000070
06000030
0E000030
0C000030
0C000030
18000030
18000030
18000030
30000030
30000060
30000060
30000060
300000C0
300001C0
38000180
38000300
18000700
1C000E00
0E001C00
0F003800
07C1E000
01FFC000
007E0000
ENDCHAR

STARTCHAR P
ENCODING 80
SWIDTH 600 0
DWIDTH 30 0
BBX 31 29 3 0
BITMAP
00FFFF80
00FFFFC0
001801E0
00180070
00180038
00180018
00180018
00300018
00300018
00300018
00300030
00300070
006000E0
006001C0
00600F80
007FFE00
00FFF800
00C00000
00C00000
00C00000
00C00000
01800000
01800000
01800000
01800000
01800000
03000000
3FFF8000
3FFF0000
ENDCHAR

STARTCHAR Q
ENCODING 81
SWIDTH 600 0
DWIDTH 30 0
BBX 30 35 3 -6
BITMAP
0001FC00
000FFF00
001E0780
007803C0
00E001C0
01C000E0
03800060
03000070
06000030
0E000030
0C000030
0C000030
18000030
18000030
18000030
30000030
30000060
30000060
30000060
300000C0
300001C0
38000180
38000300
18000700
1C000E00
0E001C00
0F003800
07C1E000
01FFC000
007E0000
00E00000
01C00000
07FF0700
0FFFFE00
1F01FC00
ENDCHAR

STARTCHAR R
ENCODING 82
SWIDTH 600 0
DWIDTH 30 0
BBX 31 29 0 0
BITMAP
00FFFF80
00FFFFC0
001801F0
00180070
00180038
00180018
00380018
00300018
00300018
00300030
00300070
007000E0
006001C0
00600F80
007FFE00
007FF000
00C03800
00C01C00
00C00E00
00C00700
00C00300
01800380
01800180
01800180
018001C0
018000C0
030000E0
3FF80078
3FF80078
ENDCHAR

STARTCHAR S
ENCODING 83
SWIDTH 600 0
DWIDTH 30 0
BBX 29 30 3 -1
BITMAP
0003F800
000FFE60
001C07E0
003003E0
006001C0
00C000C0
00C000C0
018000C0
01800080
01800000
01800000
01C00000
00F00000
007E0000
001FF000
0001FC00
00001E00
00000700
00000300
00000300
00000300
18000300
18000300
18000600
18000E00
3C001C00
3E003800
3780F000
33FFC000
00FE0000
ENDCHAR

STARTCHAR T
ENCODING 84
SWIDTH 600 0
DWIDTH 30 0
BBX 28 29 6 0
BITMAP
0FFFFFC0
1FFFFFC0
180300C0
180600C0
180600C0
30060180
30060180
30060180
300C0180
300C0180
200C0100
000C0000
00180000
00180000
00180000
00180000
00180000
00300000
00300000
00300000
00300000
00300000
00600000
00600000
00600000
00600000
00600000
3FFF8000
3FFF8000
ENDCHAR

STARTCHAR U
ENCODING 85
SWIDTH 600 0
DWIDTH 30 0
BBX 31 30 5 -1
BITMAP
1FF81FF8
1FF81FF8
030000C0
03000180
06000180
06000180
06000180
06000180
06000300
0C000300
0C000300
0C000300
0C000600
0C000600
18000600
18000600
18000600
18000C00
30000C00
30000C00
30000C00
30001800
30001800
30003800
38007000
1800E000
1C01C000
0F078000
07FE0000
01F80000
ENDCHAR

STARTCHAR V
ENCODING 86
SWIDTH 600 0
DWIDTH 30 0
BBX 32 29 5 0
BITMAP
3FF00FFC
7FE00FFC
0C000060
0C0000C0
0E0000C0
06000180
06000180
06000300
06000700
06000600
07000C00
03000C00
03001800
03003800
03003000
03006000
03806000
0180C000
0180C000
01818000
01838000
01830000
00C60000
00C60000
00CC0000
00DC0000
00D80000
00F00000
00700000
ENDCHAR

STARTCHAR W
ENCODING 87
SWIDTH 600 0
DWIDTH 30 0
BBX 31 29 5 0
BITMAP
3FF00FFC
3FF00FFC
0C000060
0C000060
1C000060
180000C0
180700C0
180700C0
180F0180
180F8180
181B8180
18198180
18318300
18318300
18618300
30618600
30C18600
30C18600
31818C00
31818C00
33018C00
33019800
36019800
3601D800
3E00F000
6C00F000
7C00F000
7800E000
7800E000
ENDCHAR

STARTCHAR X
ENCODING 88
SWIDTH 600 0
DWIDTH 30 0
BBX 35 29 0 0
BITMAP
00FF007F80
00FF007F80
0038000C00
0018001800
001C003000
000C007000
000E00E000
000601C000
0007038000
0003870000
00038E0000
0001DC0000
0000F80000
0000F00000
0000E00000
0001F00000
0003B00000
0007380000
000E1C0000
001C0C0000
00380E0000
0070060000
00E0070000
01C0030000
0180038000
0300018000
060000C000
3FE01FF000
3FE01FF000
ENDCHAR

STARTCHAR Y
ENCODING 89
SWIDTH 600 0
DWIDTH 30 0
BBX 29 29 6 0
BITMAP
3FC01FE0
3FC01FE0
0E000300
06000600
07000C00
03001800
03803800
01807000
01C0E000
00C0C000
00C18000
00E30000
00660000
007E0000
003C0000
00380000
00300000
00300000
00300000
00300000
00600000
00600000
00600000
00600000
00600000
00C00000
00C00000
7FFF8000
7FFF0000
ENDCHAR

STARTCHAR Z
ENCODING 90
SWIDTH 600 0
DWIDTH 30 0
BBX 27 29 4 0
BITMAP
00FFFFC0
00FFFFC0
00C00180
00C00380
01800700
01800E00
01800C00
01801800
03003000
00006000
0000C000
0001C000
00038000
00070000
000E0000
001C0000
00180000
00300000
00600200
00C00600
01800600
03000600
07000C00
0E000C00
1C000C00
38000C00
30000800
3FFFF800
7FFFF800
ENDCHAR

STARTCHAR bracketleft
ENCODING 91
SWIDTH 600 0
DWIDTH 30 0
BBX 19 37 11 -7
BITMAP
007FC0
007F80
006000
006000
006000
00C000
00C000
00C000
00C000
00C000
018000
018000
018000
018000
030000
030000
030000
030000
030000
060000
060000
060000
060000
060000
0C0000
0C0000
0C0000
0C0000
1C0000
180000
180000
180000
180000
300000
300000
3FC000
3FC000
ENDCHAR

STARTCHAR backslash
ENCODING 92
SWIDTH 600 0
DWIDTH 30 0
BBX 14 38 11 -4
BITMAP
3000
3000
3000
3000
3800
1800
1800
1800
1C00
0C00
0C00
0C00
0E00
0600
0600
0600
0700
0300
0300
0300
0380
0180
0180
0180
01C0
00C0
00C0
00C0
00E0
0060
0060
0060
0070
0030
0030
0030
0038
0010
ENDCHAR

STARTCHAR bracketright
ENCODING 93
SWIDTH 600 0
DWIDTH 30 0
BBX 19 37 5 -7
BITMAP
007FC0
007F80
000180
000180
000180
000300
000300
000300
000300
000300
000600
000600
000600
000600
000600
000C00
000C00
000C00
000C00
001C00
001800
001800
001800
001800
003000
003000
003000
003000
003000
006000
006000
006000
006000
006000
00C000
3FC000
3FC000
ENDCHAR

STARTCHAR asciicircum
ENCODING 94
SWIDTH 600 0
DWIDTH 30 0
BBX 22 13 8 18
BITMAP
000400
000E00
001E00
003700
006300
00C380
0181C0
0300C0
0600E0
0C0060
1C0070
380030
200010
ENDCHAR

STARTCHAR underscore
ENCODING 95
SWIDTH 600 0
DWIDTH 30 0
BBX 34 3 -2 -6
BITMAP
3FFFFFFF00
7FFFFFFF80
3FFFFFFF00
ENDCHAR

STARTCHAR quoteleft
ENCODING 96
SWIDTH 600 0
DWIDTH 30 0
BBX 11 15 17 15
BITMAP
3F80
3F80
1F80
1F80
1F80
0F80
0F80
0F80
0780
0780
0780
0380
03C0
0380
0100
ENDCHAR

STARTCHAR a
ENCODING 97
SWIDTH 600 0
DWIDTH 30 0
BBX 26 23 3 -1
BITMAP
0007F000
007FFC00
00F81E00
00800700
00000300
00000300
00000300
00000300
00000600
003FF600
01FFFE00
03E01E00
0F000600
1C000C00
18000C00
38000C00
30000C00
30003C00
30007800
3801F800
1C0F9F80
0FFE1F80
03F80000
ENDCHAR

STARTCHAR b
ENCODING 98
SWIDTH 600 0
DWIDTH 30 0
BBX 32 31 0 -1
BITMAP
00FC0000
00FC0000
000C0000
00180000
00180000
00180000
00180000
00180000
00303F00
0030FFC0
0033C1F0
00370078
006C0038
0078001C
0070001C
0070000C
0060000C
00E0000C
00C0000C
00C0000C
00C0000C
00C00018
01C00018
01C00030
01C00070
01E000E0
037001C0
03780380
3F3E0F00
3F0FFC00
0003F000
ENDCHAR

STARTCHAR c
ENCODING 99
SWIDTH 600 0
DWIDTH 30 0
BBX 27 23 4 -1
BITMAP
000FF000
003FFCC0
00F01EC0
01C00780
03800380
07000380
0E000180
0C000100
18000000
18000000
18000000
30000000
30000000
30000000
30000000
30000000
38000000
18000700
1C000E00
0E003C00
0F81F000
03FFC000
00FE0000
ENDCHAR

STARTCHAR d
ENCODING 100
SWIDTH 600 0
DWIDTH 30 0
BBX 30 31 3 -1
BITMAP
000003F0
000003F0
00000030
00000030
00000060
00000060
00000060
00000060
000FE0E0
003FF8C0
00F03CC0
01C00EC0
038006C0
070007C0
0E000380
0C000380
18000380
18000380
18000300
30000300
30000300
30000300
30000700
30000E00
38000E00
18001E00
1C003600
0E00EC00
0F83CFC0
03FF0FC0
00FC0000
ENDCHAR

STARTCHAR e
ENCODING 101
SWIDTH 600 0
DWIDTH 30 0
BBX 27 23 3 -1
BITMAP
000FE000
003FF800
00F03E00
01C00E00
03800700
06000380
0E000380
0C000180
18000180
18000180
3FFFFF80
3FFFFF80
30000000
30000000
30000000
30000000
38000000
18000000
1C000600
0E001E00
0780F800
03FFE000
00FF0000
ENDCHAR

STARTCHAR f
ENCODING 102
SWIDTH 600 0
DWIDTH 30 0
BBX 31 30 4 0
BITMAP
00001FF0
0000FFF8
0001C018
00038000
00070000
00060000
00060000
000C0000
000C0000
03FFFF80
03FFFF80
000C0000
00180000
00180000
00180000
00180000
00380000
00300000
00300000
00300000
00300000
00700000
00600000
00600000
00600000
00600000
00C00000
00C00000
3FFFF000
3FFFF000
ENDCHAR

STARTCHAR g
ENCODING 103
SWIDTH 600 0
DWIDTH 30 0
BBX 31 31 3 -9
BITMAP
001FC000
007FF1F8
00F079F8
03801D80
07000F00
06000700
0C000700
18000700
18000700
38000600
30000600
30000600
30000E00
30000C00
30001C00
38003C00
1C007C00
1E00EC00
0F03D800
07FF1800
01F81800
00001800
00003800
00003000
00003000
00006000
0000E000
0001C000
00078000
0FFE0000
0FF80000
ENDCHAR

STARTCHAR h
ENCODING 104
SWIDTH 600 0
DWIDTH 30 0
BBX 29 30 1 0
BITMAP
00FC0000
00F80000
00180000
00180000
00180000
00180000
00300000
00300000
00307E00
0033FF00
00670380
006C01C0
007800C0
007000C0
006000C0
00C000C0
00C000C0
00C00180
00C00180
00C00180
01800180
01800180
01800300
01800300
03000300
03000300
03000300
03000600
3FE03FE0
3FE03FE0
ENDCHAR

STARTCHAR i
ENCODING 105
SWIDTH 600 0
DWIDTH 30 0
BBX 24 31 3 0
BITMAP
000070
0000E0
0000E0
0000E0
0000E0
000000
000000
000000
000000
000000
00FFC0
00FF80
000180
000180
000180
000300
000300
000300
000300
000300
000600
000600
000600
000600
000E00
000C00
000C00
000C00
000C00
3FFFFE
3FFFFC
ENDCHAR

STARTCHAR j
ENCODING 106
SWIDTH 600 0
DWIDTH 30 0
BBX 25 41 1 -10
BITMAP
00000700
00000E00
00000E00
00000E00
00000E00
00000000
00000000
00000000
00000000
00000000
00FFFF00
00FFFE00
00000600
00000600
00000600
00000E00
00000C00
00000C00
00000C00
00000C00
00001800
00001800
00001800
00001800
00001800
00003000
00003000
00003000
00003000
00003000
00006000
00006000
00006000
00006000
0000C000
0000C000
00018000
00038000
000F0000
3FFC0000
3FF00000
ENDCHAR

STARTCHAR k
ENCODING 107
SWIDTH 600 0
DWIDTH 30 0
BBX 29 30 2 0
BITMAP
00FC0000
01F80000
00180000
00180000
00180000
00180000
00300000
00300000
00300000
00303FE0
00603FE0
00601C00
00603800
00607000
0061C000
00C38000
00CE0000
00DC0000
00FC0000
00EE0000
01C70000
01838000
01818000
0181C000
0300E000
03007000
03003800
03003800
3F00FF80
7E00FF80
ENDCHAR

STARTCHAR l
ENCODING 108
SWIDTH 600 0
DWIDTH 30 0
BBX 24 30 3 0
BITMAP
003FF0
003FE0
000060
000060
000060
0000C0
0000C0
0000C0
0000C0
0000C0
000180
000180
000180
000180
000380
000300
000300
000300
000300
000600
000600
000600
000600
000E00
000C00
000C00
000C00
000C00
3FFFFE
3FFFFC
ENDCHAR

STARTCHAR m
ENCODING 109
SWIDTH 600 0
DWIDTH 30 0
BBX 33 22 -1 0
BITMAP
0003E07800
03EFF1FC00
03FC738E00
00783E0600
00F01C0600
00E0180600
00C0300600
00C0300600
00C0300C00
0180300C00
0180300C00
0180600C00
0180601800
0180601800
0300601800
0300601800
0300C01800
0300C03000
0300C03000
0600C03000
3FC1F03E00
3FC1F03E00
ENDCHAR

STARTCHAR n
ENCODING 110
SWIDTH 600 0
DWIDTH 30 0
BBX 28 22 1 0
BITMAP
0000FE00
01F3FF00
01E70380
006C01C0
007800C0
007000C0
006000C0
00C000C0
00C000C0
00C00180
00C00180
00C00180
01800180
01800180
01800300
01800300
03000300
03000300
03000700
03000600
3FE03FC0
3FE03FC0
ENDCHAR

STARTCHAR o
ENCODING 111
SWIDTH 600 0
DWIDTH 30 0
BBX 27 23 4 -1
BITMAP
000FE000
003FF800
00F83C00
01C00E00
03800700
07000300
0E000380
0C000180
18000180
18000180
18000180
30000180
30000180
30000300
30000300
30000600
38000E00
18001C00
1C003800
0E007000
0783E000
03FF8000
00FE0000
ENDCHAR

STARTCHAR p
ENCODING 112
SWIDTH 600 0
DWIDTH 30 0
BBX 34 31 -2 -9
BITMAP
00000FE000
00FC7FF800
00FCF03C00
000F801E00
001F000600
001E000700
001C000300
0018000300
0038000300
0030000300
0030000300
0030000300
0030000600
0070000600
0070000C00
0078001800
0078003800
00DC00F000
00CF03C000
00C7FF8000
00C1FC0000
00C0000000
0180000000
0180000000
0180000000
0180000000
0180000000
0300000000
0300000000
3FFC000000
3FFC000000
ENDCHAR

STARTCHAR q
ENCODING 113
SWIDTH 600 0
DWIDTH 30 0
BBX 32 31 3 -9
BITMAP
000FE000
007FF8FC
00F03CFC
01C00EC0
07000780
06000780
0C000380
18000380
18000380
18000300
30000300
30000300
30000700
30000600
38000E00
38001E00
1C003E00
1E007600
0F03EC00
03FF8C00
00FC0C00
00000C00
00000C00
00001800
00001800
00001800
00001800
00003000
00003000
000FFF00
000FFF00
ENDCHAR

STARTCHAR r
ENCODING 114
SWIDTH 600 0
DWIDTH 30 0
BBX 30 22 3 0
BITMAP
000007C0
01FC1FE0
01FC7870
0008E030
0019C000
001F0000
001E0000
001C0000
00300000
00300000
00300000
00300000
00300000
00600000
00600000
00600000
00600000
00E00000
00C00000
00C00000
3FFFF000
3FFFF000
ENDCHAR

STARTCHAR s
ENCODING 115
SWIDTH 600 0
DWIDTH 30 0
BBX 26 23 3 -1
BITMAP
000FF000
003FFD80
00F01F80
01C00780
01800300
03000300
03000300
03800000
03C00000
01FE0000
007FF000
0003F800
00001C00
00000E00
00000600
18000600
18000600
18000E00
38001C00
3C003800
3F00F000
37FFC000
01FE0000
ENDCHAR

STARTCHAR t
ENCODING 116
SWIDTH 600 0
DWIDTH 30 0
BBX 22 29 7 -1
BITMAP
00C000
00C000
018000
018000
018000
018000
018000
7FFFF8
7FFFF8
030000
030000
030000
060000
060000
060000
060000
0C0000
0C0000
0C0000
0C0000
0C0000
180000
180000
180000
180000
1C0070
0E03F0
07FF80
03FC00
ENDCHAR

STARTCHAR u
ENCODING 117
SWIDTH 600 0
DWIDTH 30 0
BBX 25 22 5 -1
BITMAP
7E00FE00
7E00FE00
06000600
06000C00
0E000C00
0C000C00
0C000C00
0C000C00
0C001800
18001800
18001800
18001800
18003000
18003000
30003000
30003000
30007000
3001E000
3807E000
1C1E7C00
1FFC7C00
07E00000
ENDCHAR

STARTCHAR v
ENCODING 118
SWIDTH 600 0
DWIDTH 30 0
BBX 30 21 4 0
BITMAP
3FF01FF8
3FF01FF8
06000180
07000300
03000700
03000600
03000C00
03001C00
03801800
01803000
01807000
01806000
01C0C000
00C0C000
00C18000
00C30000
00E30000
00660000
006C0000
007C0000
00780000
ENDCHAR

STARTCHAR w
ENCODING 119
SWIDTH 600 0
DWIDTH 30 0
BBX 31 21 4 0
BITMAP
3FC007F8
3FC007F8
0C0000C0
0C0000C0
0C0000C0
0C070180
0C070180
0C0F0300
0C0F0300
0C1B0600
0C3B8600
0C318C00
0C718C00
0C618C00
0CC19800
0CC19800
0D81B000
0D81B000
0F01E000
0F00E000
0E00E000
ENDCHAR

STARTCHAR x
ENCODING 120
SWIDTH 600 0
DWIDTH 30 0
BBX 32 21 1 0
BITMAP
01FE03FC
01FE03FC
00700070
003000C0
00380380
001C0700
000E0E00
00073800
0003F000
0001E000
0003E000
0007E000
000E7000
001C3800
00701C00
00E00E00
01C00700
03800300
0E000380
3FE03FE0
3FE03FE0
ENDCHAR

STARTCHAR y
ENCODING 121
SWIDTH 600 0
DWIDTH 30 0
BBX 35 30 -1 -9
BITMAP
00FF007F80
00FF007F80
0030000E00
0030000C00
0038001800
0018003000
0018007000
001C006000
000C00C000
000C01C000
000C018000
000E030000
0006060000
00060E0000
00070C0000
0003180000
0003300000
0003300000
0003E00000
0001C00000
0001C00000
0001800000
0003000000
0006000000
000E000000
000C000000
0018000000
0038000000
3FFF000000
3FFF000000
ENDCHAR

STARTCHAR z
ENCODING 122
SWIDTH 600 0
DWIDTH 30 0
BBX 26 21 4 0
BITMAP
01FFFF00
03FFFF00
03000600
03000C00
03003800
03007000
0000E000
0001C000
00038000
00070000
000E0000
00180000
00300000
00600000
01C00000
03800C00
07000C00
0E001800
1C001800
3FFFF800
3FFFF800
ENDCHAR

STARTCHAR braceleft
ENCODING 123
SWIDTH 600 0
DWIDTH 30 0
BBX 17 37 11 -7
BITMAP
000F00
001E00
003800
007000
006000
006000
00C000
00C000
00C000
00C000
00C000
018000
018000
018000
018000
030000
070000
1E0000
3C0000
3E0000
060000
060000
060000
060000
060000
0C0000
0C0000
0C0000
0C0000
0C0000
180000
180000
180000
180000
1C0000
0F0000
070000
ENDCHAR

STARTCHAR bar
ENCODING 124
SWIDTH 600 0
DWIDTH 30 0
BBX 5 37 13 -7
BITMAP
60
60
60
60
60
60
60
60
60
60
60
60
60
60
60
60
60
60
60
60
60
60
60
60
60
60
60
60
60
60
60
60
60
60
60
60
60
ENDCHAR

STARTCHAR braceright
ENCODING 125
SWIDTH 600 0
DWIDTH 30 0
BBX 17 37 7 -7
BITMAP
007000
007800
001C00
000C00
000C00
000C00
000C00
001800
001800
001800
001800
001800
003000
003000
003000
003000
003800
001E00
001E00
003E00
007000
006000
00C000
00C000
00C000
00C000
00C000
018000
018000
018000
018000
030000
030000
070000
0E0000
3C0000
780000
ENDCHAR

STARTCHAR asciitilde
ENCODING 126
SWIDTH 600 0
DWIDTH 30 0
BBX 24 7 6 11
BITMAP
03C000
07F000
1C780E
381C1C
701E38
000FF0
0003C0
ENDCHAR

STARTCHAR space
ENCODING 160
SWIDTH 600 0
DWIDTH 32 0
BBX 0 0 0 0
BITMAP
ENDCHAR

STARTCHAR afii10023
ENCODING 161
SWIDTH 600 0
DWIDTH 30 0
BBX 31 37 1 0
BITMAP
0001C070
0003C0F0
0003C0F0
000380E0
00000000
00000000
00000000
00000000
01FFFFF8
01FFFFF8
00180018
00380018
00300018
00300030
00300030
00300030
00600000
00601000
00603000
00603000
00603000
00FFF000
00FFF000
00C06000
00C06000
00C06000
01804000
01800040
018000C0
018000C0
018000C0
030000C0
030000C0
03000180
03000180
3FFFFF80
7FFFFF80
ENDCHAR

STARTCHAR afii10051
ENCODING 162
SWIDTH 600 0
DWIDTH 30 0
BBX 29 30 3 -1
BITMAP
0FFFFE00
1FFFFE00
180C0600
180C0600
300C0600
301C0600
30180600
30180E00
60180C00
00180000
00300000
00300000
00303F00
0031FF80
0037C1C0
006F00E0
007C0060
00700060
00600060
00E00060
00C00060
00C00060
00C000C0
00C000C0
01C001C0
01800380
01800700
1FF80E00
1FF87C00
00007000
ENDCHAR

STARTCHAR afii10052
ENCODING 163
SWIDTH 600 0
DWIDTH 30 0
BBX 34 40 1 0
BITMAP
0000003000
0000007000
000000E000
0000038000
0000070000
00001C0000
0000180000
0000000000
0000000000
0000000000
0000000000
01FFFFFF00
01FFFFFF00
0006000300
0006000300
0006000300
0006000600
0006000600
000C000600
000C000600
000C000600
000C000400
000C000000
0018000000
0018000000
0018000000
0018000000
0038000000
0030000000
0030000000
0030000000
0030000000
0070000000
0060000000
0060000000
0060000000
0060000000
00C0000000
3FFF800000
3FFF800000
ENDCHAR

STARTCHAR afii10053
ENCODING 164
SWIDTH 600 0
DWIDTH 30 0
BBX 30 30 4 -1
BITMAP
0003FC00
000FFF30
003C07B0
007001F0
00C000F0
01800070
03000060
07000060
06000060
0C000000
0C000000
18000000
18000000
1FFFF800
1FFFF800
30000000
30000000
30000000
30000000
30000000
30000000
38000000
38000000
18000300
1C000700
0E000E00
07003C00
03C0F000
01FFC000
007F0000
ENDCHAR

STARTCHAR afii10054
ENCODING 165
SWIDTH 600 0
DWIDTH 30 0
BBX 29 30 3 -1
BITMAP
0001F800
000FFE60
001C07E0
007003E0
006001C0
00C000C0
00C000C0
018000C0
01800080
01800000
01800000
01C00000
00F00000
007E0000
001FF000
0001FC00
00001E00
00000700
00000300
00000300
00000300
18000300
18000300
18000600
18000E00
3C001C00
3E003800
3780F000
33FFC000
00FE0000
ENDCHAR

STARTCHAR afii10055
ENCODING 166
SWIDTH 600 0
DWIDTH 30 0
BBX 28 29 4 0
BITMAP
00FFFFC0
00FFFFC0
0000C000
00018000
00018000
00018000
00018000
00018000
00030000
00030000
00030000
00030000
00070000
00060000
00060000
00060000
00060000
000C0000
000C0000
000C0000
000C0000
000C0000
00180000
00180000
00180000
00180000
00180000
3FFFF800
3FFFF000
ENDCHAR

STARTCHAR afii10056
ENCODING 167
SWIDTH 600 0
DWIDTH 30 0
BBX 27 37 4 0
BITMAP
000E0380
001E0780
001E0780
001C0700
00000000
00000000
00000000
00000000
00FFFFC0
01FFFF80
00018000
00018000
00018000
00018000
00010000
00030000
00030000
00030000
00030000
00020000
00060000
00060000
00060000
00060000
00040000
000C0000
000C0000
000C0000
000C0000
00180000
00180000
00180000
00180000
00180000
00300000
3FFFF000
3FFFF000
ENDCHAR

STARTCHAR afii10057
ENCODING 168
SWIDTH 600 0
DWIDTH 30 0
BBX 34 30 3 -1
BITMAP
0001FFFF00
0001FFFF00
000000C000
0000018000
0000018000
0000018000
0000018000
0000038000
0000030000
0000030000
0000030000
0000030000
0000060000
0000060000
0000060000
0000060000
0C00060000
0C000C0000
18000C0000
18000C0000
18000C0000
18000C0000
1800180000
3000180000
3000300000
3800600000
1E00C00000
0F03800000
07FF000000
01F8000000
ENDCHAR

STARTCHAR afii10058
ENCODING 169
SWIDTH 600 0
DWIDTH 30 0
BBX 33 30 0 -1
BITMAP
001FFFF800
001FFFF800
0001C18000
0001818000
0001838000
0001830000
0001830000
0003830000
0003030000
0003070000
0003060000
0003060000
0006060000
000607E000
00060FF800
00060C3C00
00060C0E00
000C0C0600
000C1C0600
000C180600
000C180600
001C180600
0018180E00
3018380C00
3038381C00
3030303800
306030F000
71E3FFE000
7FC3FF0000
3F00000000
ENDCHAR

STARTCHAR afii10059
ENCODING 170
SWIDTH 600 0
DWIDTH 30 0
BBX 34 29 -1 0
BITMAP
00FF3FF000
00FF3FF000
0018060000
0038060000
0030060000
00300C0000
00300C0000
00300C0000
00700C0000
00600C0000
0060180000
0060180000
0060180000
00FFFFE000
00FFFFF800
00C0303E00
00C0300E00
00C0300700
01C0300300
0180600300
0180600300
0180600300
0380600300
0300600600
0300C00E00
0300C01C00
0300C07800
3FE7FFF000
3FE7FF8000
ENDCHAR

STARTCHAR afii10060
ENCODING 171
SWIDTH 600 0
DWIDTH 30 0
BBX 28 29 3 0
BITMAP
0FFFFE00
1FFFFE00
180C0600
180C0600
300C0600
301C0600
30180600
30180600
60180400
00180000
00380000
00300000
00307C00
0031FF00
00378700
006E0380
00780180
00700180
00600180
00600180
00C00180
00C00380
00C00300
00C00300
01C00300
01800300
01800600
1FF87FE0
1FF87FE0
ENDCHAR

STARTCHAR afii10061
ENCODING 172
SWIDTH 600 0
DWIDTH 30 0
BBX 33 40 2 0
BITMAP
0000006000
000001C000
0000038000
0000070000
00001C0000
0000380000
0000700000
0000000000
0000000000
0000000000
0000000000
01FF803E00
01FF80FE00
001801E600
0018018600
0030030600
0030060400
00300E0000
00301C0000
0030380000
0060300000
0060600000
0061C00000
007F800000
00FFC00000
00C1E00000
00C0600000
00C0700000
00C0300000
0180380000
0180180000
0180180000
0180180000
01800C0000
03000C0000
03000C0000
03000E0000
0300060000
3FF007F000
3FF007F000
ENDCHAR

STARTCHAR hyphen
ENCODING 173
SWIDTH 600 0
DWIDTH 30 0
BBX 24 3 6 13
BITMAP
3FFFFE
3FFFFE
7FFFFC
ENDCHAR

STARTCHAR afii10062
ENCODING 174
SWIDTH 600 0
DWIDTH 30 0
BBX 33 41 3 -1
BITMAP
0004004000
000C00C000
000C00C000
000E018000
0007078000
0007FE0000
0001F80000
0000000000
0000000000
0000000000
0000000000
0FF801FF00
0FF801FF00
0180003800
01C0007000
00C0006000
00C000C000
00E001C000
0060038000
0060030000
0070070000
00300E0000
00300C0000
0030180000
0018380000
0018700000
0018600000
001CC00000
000DC00000
000D800000
000F000000
0007000000
000E000000
000C000000
3018000000
3038000000
3030000000
3060000000
61C0000000
7F80000000
3F00000000
ENDCHAR

STARTCHAR afii10145
ENCODING 175
SWIDTH 600 0
DWIDTH 30 0
BBX 33 35 2 -6
BITMAP
03FF03FF00
03FF03FF00
0030006000
0030006000
0060006000
0060006000
0060006000
006000C000
006000C000
00C000C000
00C000C000
00C0008000
00C0018000
00C0018000
0180018000
0180018000
0180030000
0180030000
0300030000
0300030000
0300030000
0300060000
0300060000
0600060000
0600060000
0600060000
06000C0000
7FFFFFE000
7FFFFFE000
000E000000
000C000000
000C000000
000C000000
000C000000
0018000000
ENDCHAR

STARTCHAR afii10017
ENCODING 176
SWIDTH 600 0
DWIDTH 30 0
BBX 32 29 0 0
BITMAP
000FFF00
000FFF00
00001B00
00003300
00003380
00006180
00006180
0000C180
0001C180
00018180
000301C0
000300C0
000600C0
000600C0
000C00C0
001800C0
001800E0
003FFFE0
003FFFE0
00600060
00600060
00C00060
01800070
01800030
03000030
03000030
06000030
3FF007FE
3FF007FE
ENDCHAR

STARTCHAR afii10018
ENCODING 177
SWIDTH 600 0
DWIDTH 30 0
BBX 31 29 1 0
BITMAP
01FFFFF8
01FFFFF8
00180018
00180038
00380030
00300030
00300000
00300000
00300000
00600000
00600000
00600000
00600000
007FFE00
00FFFF80
00C003E0
00C000E0
00C00070
00C00030
01800030
01800030
01800030
01800030
01800060
030000E0
030001C0
03000780
3FFFFF00
3FFFF800
ENDCHAR

STARTCHAR afii10019
ENCODING 178
SWIDTH 600 0
DWIDTH 30 0
BBX 31 29 1 0
BITMAP
00FFFF80
00FFFFE0
001800F0
00180038
00180038
00180018
00300018
00300018
00300018
00300030
00300070
006000E0
00600780
007FFF00
007FFF80
00C003E0
00C000E0
00C00070
00C00030
00800030
01800030
01800030
01800060
01800060
010000C0
030001C0
03000780
3FFFFE00
3FFFF800
ENDCHAR

STARTCHAR afii10020
ENCODING 179
SWIDTH 600 0
DWIDTH 30 0
BBX 34 29 1 0
BITMAP
01FFFFFF00
01FFFFFF00
0006000300
0006000300
0006000300
0006000600
0006000600
000C000600
000C000600
000C000600
000C000400
000C000000
0018000000
0018000000
0018000000
0018000000
0038000000
0030000000
0030000000
0030000000
0030000000
0070000000
0060000000
0060000000
0060000000
0060000000
00C0000000
3FFF800000
3FFF800000
ENDCHAR

STARTCHAR afii10021
ENCODING 180
SWIDTH 600 0
DWIDTH 30 0
BBX 36 36 -1 -7
BITMAP
001FFFFFC0
001FFFFFC0
0000C00C00
0001C00C00
0001800C00
0001800C00
0001801800
0001801800
0003801800
0003001800
0003001800
0003003000
0003003000
0007003000
0006003000
0006003000
0006006000
000E006000
000C006000
000C006000
001C00E000
001800C000
003800C000
007000C000
00E000C000
01C001C000
0780018000
1FFFFFF800
3FFFFFF800
3000001800
3000003000
3000003000
3000003000
6000003000
6000006000
6000002000
ENDCHAR

STARTCHAR afii10022
ENCODING 181
SWIDTH 600 0
DWIDTH 30 0
BBX 32 29 1 0
BITMAP
01FFFFFC
01FFFFFC
0018000C
00180018
00300018
00300018
00300018
00300018
00300010
00601800
00601800
00603000
00603000
007FF000
00FFF000
00C03000
00C06000
00C06000
01C06000
01800020
01800060
01800060
01800060
038000C0
030000C0
030000C0
030000C0
3FFFFF80
3FFFFF80
ENDCHAR

STARTCHAR afii10024
ENCODING 182
SWIDTH 600 0
DWIDTH 30 0
BBX 38 29 -1 0
BITMAP
00F03FC0F0
00F83FC3F0
00DC060730
00CC060670
018E0C0C60
01860C1C60
00060C1800
00060C3000
00031C7000
000318E000
000318C000
0001998000
0001FF0000
0003FF8000
0007318000
000E30C000
001C30C000
003830E000
0030606000
0070606000
0060606000
00C0607000
01C0603000
0180C03000
0380C03000
0300C03000
0600C03000
3E0FF81E00
3C0FF81E00
ENDCHAR

STARTCHAR afii10025
ENCODING 183
SWIDTH 600 0
DWIDTH 30 0
BBX 30 30 2 -1
BITMAP
00C0FE00
00C7FFC0
00FE01E0
00F80060
00E00070
01C00030
01800030
01800030
03000070
03000060
000000E0
000003C0
00001F00
001FFC00
001FFE00
00000F80
00000380
000001C0
000000C0
000000C0
000000C0
000000C0
000001C0
00000180
20000380
70000700
7C000E00
1F807C00
07FFF000
00FF8000
ENDCHAR

STARTCHAR afii10026
ENCODING 184
SWIDTH 600 0
DWIDTH 30 0
BBX 36 29 0 0
BITMAP
01FF800FE0
01FF801FC0
0018003C00
0018003C00
0018006C00
003000EC00
003001CC00
0030039800
0030031800
0070071800
00600E1800
00601C1800
0060183000
0060303000
00C0703000
00C0E03000
00C1C06000
00C1806000
00C3006000
0187006000
018E006000
018C00C000
019800C000
01B000C000
037000C000
03E000C000
03C0018000
3F801FF800
3F801FF800
ENDCHAR

STARTCHAR afii10027
ENCODING 185
SWIDTH 600 0
DWIDTH 30 0
BBX 36 40 0 0
BITMAP
0000400600
0000C00600
0000C00C00
0000E01C00
0000707800
00007FF000
00001FC000
0000000000
0000000000
0000000000
0000000000
01FF800FE0
01FF801FC0
0018003E00
0018003C00
0018007C00
003000EC00
003001CC00
0030039800
0030031800
0030071800
00600E1800
00601C1800
0060183000
0060303000
0060703000
00C0E03000
00C0C03000
00C1806000
00C3006000
01C7006000
018E006000
018C00E000
019800C000
01B800C000
037000C000
036000C000
03C0018000
3F801FF800
3F801FF800
ENDCHAR

STARTCHAR afii10028
ENCODING 186
SWIDTH 600 0
DWIDTH 30 0
BBX 33 29 2 0
BITMAP
01FF803E00
01FF80FE00
001801E600
0018018600
0030030600
0030060400
00300E0000
00301C0000
0030380000
0060300000
0060600000
0061C00000
007F800000
00FFC00000
00C1E00000
00C0600000
00C0700000
00C0300000
0180380000
0180180000
0180180000
0180180000
01800C0000
03000C0000
03000C0000
03000E0000
0300060000
3FF007F000
3FF007F000
ENDCHAR

STARTCHAR afii10029
ENCODING 187
SWIDTH 600 0
DWIDTH 30 0
BBX 35 30 0 -1
BITMAP
001FFFFFC0
001FFFFFC0
0001C00C00
0001800C00
0001800C00
0001801800
0001801800
0003801800
0003001800
0003003800
0003003000
0003003000
0006003000
0006003000
0006007000
0006006000
0006006000
000C006000
000C006000
000C00E000
000C00C000
001C00C000
001800C000
301800C000
3030018000
3030018000
3060018000
61E01FF800
7F801FF800
3F00000000
ENDCHAR

STARTCHAR afii10030
ENCODING 188
SWIDTH 600 0
DWIDTH 30 0
BBX 38 29 -1 0
BITMAP
00FE0003F0
00FE0007F0
0036000D80
0036000D80
0037001980
0033003980
0063003300
0063006300
0063006300
006380C300
0061818700
00C1818600
00C1830600
00C1C70600
00C0C60600
00C0CC0C00
0180DC0C00
0180D80C00
0180F00C00
0180700C00
0180001800
0300001800
0300001800
0300001800
0300001800
0700003000
0600003000
3FF007FE00
3FF007FE00
ENDCHAR

STARTCHAR afii10031
ENCODING 189
SWIDTH 600 0
DWIDTH 30 0
BBX 32 29 1 0
BITMAP
00FF83FE
00FF83FE
00180030
00380030
00300030
00300070
00300070
00300060
00600060
00600060
006000E0
006000C0
006000C0
00FFFFC0
00FFFFC0
00C000C0
00800180
00800180
01800180
01800180
01800180
01000300
03000300
03000300
03000300
02000300
02000600
7FE07FE0
7FE07FE0
ENDCHAR

STARTCHAR afii10032
ENCODING 190
SWIDTH 600 0
DWIDTH 30 0
BBX 30 30 3 -1
BITMAP
0001FC00
000FFF00
001E0780
007803C0
00E001C0
01C000E0
03800060
03000070
06000030
0E000030
0C000030
0C000030
18000030
18000030
18000030
30000030
30000060
30000060
300000E0
300000C0
300001C0
38000180
38000300
18000700
1C000E00
0E001C00
0F007800
07C1E000
01FFC000
007E0000
ENDCHAR

STARTCHAR afii10033
ENCODING 191
SWIDTH 600 0
DWIDTH 30 0
BBX 33 29 2 0
BITMAP
01FFFFFE00
01FFFFFE00
0030003000
0030006000
0030006000
0060006000
0060006000
0060006000
006000C000
006000C000
00C000C000
00C000C000
00C0018000
00C0018000
00C0018000
0180018000
0180018000
0180030000
0180030000
0180030000
0300030000
0300030000
0300060000
0300060000
0700060000
0600060000
0600060000
7FE0FFC000
7FE0FFC000
ENDCHAR

STARTCHAR afii10034
ENCODING 192
SWIDTH 600 0
DWIDTH 30 0
BBX 31 29 3 0
BITMAP
00FFFF80
00FFFFC0
001801E0
00180070
00180038
00180018
00180018
00300018
00300018
00300018
00300030
00300070
006000E0
006001C0
00600F80
007FFE00
00FFF800
00C00000
00C00000
00C00000
00C00000
01800000
01800000
01800000
01800000
01800000
03000000
3FFF8000
3FFF0000
ENDCHAR

STARTCHAR afii10035
ENCODING 193
SWIDTH 600 0
DWIDTH 30 0
BBX 30 30 4 -1
BITMAP
0003FC00
000FFF30
003C07B0
007001F0
00E000F0
01800070
03000060
07000060
06000060
0C000000
0C000000
1C000000
18000000
18000000
18000000
38000000
30000000
30000000
30000000
30000000
30000000
30000000
38000000
18000300
1C000700
0E000E00
07001C00
03C0F000
01FFC000
007F0000
ENDCHAR

STARTCHAR afii10036
ENCODING 194
SWIDTH 600 0
DWIDTH 30 0
BBX 28 29 6 0
BITMAP
0FFFFFC0
1FFFFFC0
180300C0
180600C0
180600C0
30060180
30060180
30060180
300C0180
300C0180
200C0100
000C0000
00180000
00180000
00180000
00180000
00180000
00300000
00300000
00300000
00300000
00300000
00600000
00600000
00600000
00600000
00600000
3FFF8000
3FFF8000
ENDCHAR

STARTCHAR afii10037
ENCODING 195
SWIDTH 600 0
DWIDTH 30 0
BBX 33 30 3 -1
BITMAP
0FF801FF00
0FF801FF00
0180003800
01C0007000
00C0006000
00C000C000
00E001C000
0060038000
0060030000
0070070000
00300E0000
00300C0000
0030180000
0018380000
0018700000
0018600000
001CC00000
000DC00000
000D800000
000F000000
0007000000
000E000000
000C000000
3018000000
3038000000
3030000000
3060000000
61C0000000
7F80000000
3F00000000
ENDCHAR

STARTCHAR afii10038
ENCODING 196
SWIDTH 600 0
DWIDTH 30 0
BBX 30 29 3 0
BITMAP
0007FE00
0007FE00
00006000
0000C000
0007F800
003FFF00
00FEDFC0
03C0C1E0
078180E0
06018070
0C018030
1C018030
18018030
38030030
30030030
30030030
30030060
30070060
380600C0
380601C0
1C060380
0F060F00
0FFDFC00
03FFF000
007F0000
000C0000
00080000
01FF8000
01FF8000
ENDCHAR

STARTCHAR afii10039
ENCODING 197
SWIDTH 600 0
DWIDTH 30 0
BBX 35 29 0 0
BITMAP
00FF007F80
00FF007F80
0038000C00
0018001800
001C003000
000C007000
000E00E000
000601C000
0007038000
0003870000
00038E0000
0001DC0000
0000F80000
0000F00000
0000E00000
0001F00000
0003B00000
0007380000
000E1C0000
001C0C0000
00380E0000
0070060000
00E0070000
01C0030000
0180038000
0300018000
060000C000
3FE01FF000
3FE01FF000
ENDCHAR

STARTCHAR afii10040
ENCODING 198
SWIDTH 600 0
DWIDTH 30 0
BBX 33 35 1 -6
BITMAP
03FF03FF00
03FF03FF00
0030006000
0030006000
0060006000
0060006000
0060006000
006000C000
006000C000
00C000C000
00C000C000
00C0008000
00C0018000
00C0018000
0180018000
0180018000
0180030000
0180030000
0300030000
0300030000
0300030000
0300060000
0300060000
0600060000
0600060000
0600060000
06000C0000
7FFFFFF000
7FFFFFF000
0000006000
0000006000
0000006000
0000006000
000000C000
000000C000
ENDCHAR

STARTCHAR afii10041
ENCODING 199
SWIDTH 600 0
DWIDTH 30 0
BBX 29 29 5 0
BITMAP
7FE03FE0
7FE03FE0
06000300
06000600
06000600
0E000600
0C000600
0C000E00
0C000C00
0C000C00
1C000C00
18000C00
18001C00
18003800
1800F800
1C01D800
0E0F9800
0FFE3000
03F03000
00003000
00003000
00003000
00006000
00006000
00006000
00006000
00006000
007FFC00
007FFC00
ENDCHAR

STARTCHAR afii10042
ENCODING 200
SWIDTH 600 0
DWIDTH 30 0
BBX 37 29 0 0
BITMAP
01FE7F8FF0
01FE7F9FF0
00300C0300
00300C0300
00300C0300
0060180600
0060180600
0060180600
0060180600
0060180600
00C0300C00
00C0300C00
00C0300C00
00C0300C00
00C0200C00
0180601800
0180601800
0180601800
0180601800
0380401800
0300C03000
0300C03000
0300C03000
0300C03000
0700807000
0601806000
0601806000
7FFFFFFE00
7FFFFFFE00
ENDCHAR

STARTCHAR afii10043
ENCODING 201
SWIDTH 600 0
DWIDTH 30 0
BBX 37 35 0 -6
BITMAP
01FE7F8FF0
01FE7F9FF0
00300C0300
00300C0300
00300C0300
0060180600
0060180600
0060180600
0060180600
0060180600
00C0300C00
00C0300C00
00C0300C00
00C0300C00
00C0200C00
0180601800
0180601800
0180601800
0180601800
0380401800
0300C03000
0300C03000
0300C03000
0300C03000
0700807000
0601806000
0601806000
7FFFFFFE00
7FFFFFFE00
0000000600
0000000600
0000000E00
0000000C00
0000000C00
0000000C00
ENDCHAR

STARTCHAR afii10044
ENCODING 202
SWIDTH 600 0
DWIDTH 30 0
BBX 28 29 3 0
BITMAP
1FFFF000
1FFFF000
180E0000
180C0000
300C0000
300C0000
301C0000
301C0000
00180000
00180000
00180000
00380000
00300000
003FF800
003FFE00
00300F80
00600380
006001C0
006000C0
006000C0
006000C0
00C000C0
00C000C0
00C00180
00C00380
00C00700
01801E00
1FFFFC00
1FFFE000
ENDCHAR

STARTCHAR afii10045
ENCODING 203
SWIDTH 600 0
DWIDTH 30 0
BBX 39 29 -2 0
BITMAP
01FF800FF8
01FF800FF8
0018000180
0018000180
0018000180
0038000100
0030000300
0030000300
0030000300
0030000300
0070000200
0060000600
0060000600
007FE00600
007FF80600
00C03E0C00
00C00E0C00
00C0070C00
00C0030C00
0180030C00
0180031800
0180031800
0180031800
0180061800
03000E1800
03001C3000
0300783000
3FFFF3FF00
3FFF83FF00
ENDCHAR

STARTCHAR afii10046
ENCODING 204
SWIDTH 600 0
DWIDTH 30 0
BBX 30 29 1 0
BITMAP
01FFC000
01FFC000
00180000
00180000
00380000
00380000
00300000
00300000
00300000
00700000
00600000
00600000
00600000
007FFE00
00FFFF80
00C003E0
00C000E0
00C00070
00C00030
01800030
01800030
01800030
01800030
01800060
030000E0
030001C0
03000780
3FFFFF00
3FFFF800
ENDCHAR

STARTCHAR afii10047
ENCODING 205
SWIDTH 600 0
DWIDTH 30 0
BBX 30 30 2 -1
BITMAP
0003FC00
00CFFF00
019C0780
01F001C0
01E000C0
01C000E0
03800060
03000070
03000030
03000030
00000030
00000030
00000030
00000030
003FFFF0
003FFFF0
00000060
00000060
00000060
000000E0
000000C0
000001C0
00000380
00000700
00000E00
38001E00
3C003C00
1F01F000
07FFC000
00FF0000
ENDCHAR

STARTCHAR afii10048
ENCODING 206
SWIDTH 600 0
DWIDTH 30 0
BBX 35 31 -1 -1
BITMAP
000001F000
00FF87FC00
00FF8E1E00
0030180600
0030300700
0030600300
0030E00380
0030C00180
0071C00180
0061800180
0061800180
0063000180
0063000180
00E3000180
00FE000180
00FE000180
0086000180
0186000300
0186000300
0186000300
0186000200
0106000600
0306000600
0307000C00
0303000C00
0303001800
0203803000
0601C07000
7FE0E1E000
7FE07F8000
00003E0000
ENDCHAR

STARTCHAR afii10049
ENCODING 207
SWIDTH 600 0
DWIDTH 30 0
BBX 34 29 1 0
BITMAP
0001FFFF00
0007FFFF00
000E003000
0018003000
0038003000
0030006000
0060006000
0060006000
0060006000
006000E000
007000C000
003800C000
003E00C000
000FFFC000
0003FFC000
0003C18000
0007018000
000E018000
001C018000
0018038000
0030030000
0070030000
00E0030000
00C0030000
01C0070000
0180060000
0300060000
7F007FE000
7E007FE000
ENDCHAR

STARTCHAR afii10065
ENCODING 208
SWIDTH 600 0
DWIDTH 30 0
BBX 26 23 3 -1
BITMAP
0007F000
007FFC00
00F80E00
00800700
00000300
00000300
00000300
00000300
00000600
003FF600
01FFFE00
07C00E00
0F000600
1C000C00
18000C00
30000C00
30000C00
30003C00
30007800
3801F800
1C0F9F80
0FFE1F80
03F80000
ENDCHAR

STARTCHAR afii10066
ENCODING 209
SWIDTH 600 0
DWIDTH 30 0
BBX 28 31 3 -1
BITMAP
00000040
000000C0
000001C0
001FFF80
007FFE00
01E00000
03800000
03000000
0707F000
063FFC00
0EF81F00
0DC00700
0F800380
1F0001C0
1E0001C0
1C0000C0
180000C0
180000C0
380000C0
300000C0
300001C0
30000180
30000180
30000380
38000700
18000E00
1C001C00
0E003800
0781F000
03FFC000
00FF0000
ENDCHAR

STARTCHAR afii10067
ENCODING 210
SWIDTH 600 0
DWIDTH 30 0
BBX 28 21 1 0
BITMAP
07FFFE00
07FFFF00
00600380
006001C0
00E000C0
00C000C0
00C000C0
00C00180
00C00700
01FFFC00
01FFFE00
01800F00
01800180
010000C0
030000C0
030000C0
030000C0
030001C0
02000780
7FFFFF00
7FFFF800
ENDCHAR

STARTCHAR afii10068
ENCODING 211
SWIDTH 600 0
DWIDTH 30 0
BBX 32 21 1 0
BITMAP
03FFFFFE
03FFFFFE
000C000C
000C000C
0018000C
0018000C
0018001C
00180018
00180018
00300018
00300000
00300000
00300000
00300000
00600000
00600000
00600000
00600000
00C00000
3FFF8000
3FFF8000
ENDCHAR

STARTCHAR afii10069
ENCODING 212
SWIDTH 600 0
DWIDTH 30 0
BBX 34 26 -1 -5
BITMAP
003FFFFF00
003FFFFF00
0003003000
0003003000
0003003000
0003003000
0006007000
0006006000
0006006000
0006006000
000E006000
000C00C000
000C00C000
000C00C000
001800C000
003800C000
0030018000
00E0018000
03C0018000
1FFFFFF000
1FFFFFF800
1800003000
1800003000
3000003000
3000003000
3000002000
ENDCHAR

STARTCHAR afii10070
ENCODING 213
SWIDTH 600 0
DWIDTH 30 0
BBX 27 23 3 -1
BITMAP
000FE000
003FF800
00F03E00
01C00E00
03800700
06000380
0E000380
0C000180
18000180
18000180
3FFFFF80
3FFFFF80
30000000
30000000
30000000
30000000
38000000
18000000
1C000600
0E001E00
0780F800
03FFE000
00FF0000
ENDCHAR

STARTCHAR afii10072
ENCODING 214
SWIDTH 600 0
DWIDTH 30 0
BBX 35 21 -1 0
BITMAP
01E0FF0780
03F0FF0F80
0338181D80
0318383980
0318307180
000C30E000
000C31C000
000E338000
0007770000
0003FE0000
0007FF0000
001C638000
0038618000
0070C1C000
00E0C0C000
00C0C0C000
0180C0E000
0301C06000
0701806000
3E0FF03C00
3C0FF03C00
ENDCHAR

STARTCHAR afii10073
ENCODING 215
SWIDTH 600 0
DWIDTH 30 0
BBX 28 23 2 -1
BITMAP
0107FC00
033FFF00
03780780
03C001C0
038000C0
070000C0
060000C0
06000180
00000380
00003E00
003FF800
003FFE00
00001F00
00000380
00000180
00000180
00000180
00000380
00000300
38000F00
3F007C00
0FFFF800
00FFC000
ENDCHAR

STARTCHAR afii10074
ENCODING 216
SWIDTH 600 0
DWIDTH 30 0
BBX 34 21 1 0
BITMAP
07FE003F00
07FE007F00
006000F000
00E001B000
00C0033000
00C0063000
00C00C6000
00C0186000
0180706000
0180E06000
0181C06000
018380C000
018700C000
030E00C000
031C00C000
033800C000
0370018000
06E0018000
07C0018000
3F801FF000
7F001FF000
ENDCHAR

STARTCHAR afii10075
ENCODING 217
SWIDTH 600 0
DWIDTH 30 0
BBX 34 32 1 0
BITMAP
0002001000
0006003000
0006007000
000700E000
000381C000
0003FF8000
0000FE0000
0000000000
0000000000
0000000000
0000000000
07FE003F00
07FE007F00
006000F000
00E001B000
00C0033000
00C0063000
00C00C6000
00C0386000
0180706000
0180E06000
0181C06000
018380C000
018700C000
030E00C000
031C00C000
033800C000
0370018000
06E0018000
07C0018000
3F801FF000
7F001FF000
ENDCHAR

STARTCHAR afii10076
ENCODING 218
SWIDTH 600 0
DWIDTH 30 0
BBX 31 21 2 0
BITMAP
07FE00F8
07FE03F8
00600798
00600E18
00601C30
00E03830
00C07000
00C0E000
00C3C000
00FF0000
01FF8000
0181C000
0180E000
01806000
01803000
03003000
03001800
03001800
03000C00
3FF00FE0
3FF007E0
ENDCHAR

STARTCHAR afii10077
ENCODING 219
SWIDTH 600 0
DWIDTH 30 0
BBX 33 22 -1 -1
BITMAP
003FFFFF00
003FFFFF00
0003003000
0003003000
0006003000
0006006000
0006006000
0006006000
0006006000
000C00E000
000C00C000
000C00C000
000C00C000
000C00C000
0018018000
0018018000
1018018000
3030018000
3070018000
30E01FF000
3FC01FF000
3F00000000
ENDCHAR

STARTCHAR afii10078
ENCODING 220
SWIDTH 600 0
DWIDTH 30 0
BBX 36 21 -1 0
BITMAP
01F8000FC0
03F8001FC0
007C003B00
00DC003600
00CC007600
00CC006600
00CC00C600
00CE01CC00
0186018C00
0186030C00
0186070C00
0187060C00
01830E1800
03031C1800
0303181800
0303B81800
0301F01800
0701E03000
0601E03000
3FF007FE00
3FF007FE00
ENDCHAR

STARTCHAR afii10079
ENCODING 221
SWIDTH 600 0
DWIDTH 30 0
BBX 31 21 2 0
BITMAP
03FE03FC
03FE07FC
006000C0
006000C0
006000C0
00C000C0
00C001C0
00C00180
00C00180
00FFFF80
01FFFF80
01800180
01000300
01000300
03000300
03000300
03000300
02000600
02000600
7FE07FE0
7FE07FE0
ENDCHAR

STARTCHAR afii10080
ENCODING 222
SWIDTH 600 0
DWIDTH 30 0
BBX 27 23 4 -1
BITMAP
000FE000
003FF800
00F83C00
01C00E00
03800700
07000300
0E000380
0C000180
18000180
18000180
18000180
30000180
30000180
30000300
30000300
30000600
38000E00
18001C00
1C003800
0E007000
0783E000
03FF8000
00FC0000
ENDCHAR

STARTCHAR afii10081
ENCODING 223
SWIDTH 600 0
DWIDTH 30 0
BBX 31 21 2 0
BITMAP
03FFFFF8
07FFFFF8
00C000C0
00C000C0
00C001C0
00C00180
00C00180
01800180
01800180
01800380
01800300
01800300
03000300
03000300
03000600
03000600
03000600
06000600
06000600
7FE0FFC0
7FE0FFC0
ENDCHAR

STARTCHAR afii10082
ENCODING 224
SWIDTH 600 0
DWIDTH 30 0
BBX 34 31 -2 -9
BITMAP
00000FE000
00FC7FF800
00FCF03C00
000F801E00
001F000600
001E000700
001C000300
0018000300
0038000300
0030000300
0030000300
0030000300
0030000600
0070000600
0070000C00
0078001800
0078003800
00DE00F000
00CF03C000
00C7FF8000
00C1FC0000
00C0000000
0180000000
0180000000
0180000000
0180000000
0180000000
0300000000
0300000000
3FFC000000
3FFC000000
ENDCHAR

STARTCHAR afii10083
ENCODING 225
SWIDTH 600 0
DWIDTH 30 0
BBX 27 23 4 -1
BITMAP
000FF000
003FFCC0
00F01EC0
01C00780
03800380
07000380
0E000180
0C000100
18000000
18000000
18000000
30000000
30000000
30000000
30000000
30000000
38000000
18000700
1C000E00
0E003C00
0F81F000
03FFC000
00FE0000
ENDCHAR

STARTCHAR afii10084
ENCODING 226
SWIDTH 600 0
DWIDTH 30 0
BBX 28 21 4 0
BITMAP
0FFFFFE0
0FFFFFE0
180300C0
180300C0
180600C0
180600C0
180601C0
30060180
30060180
300C0180
000C0000
000C0000
000C0000
000C0000
00180000
00180000
00180000
00180000
00180000
0FFFE000
0FFFE000
ENDCHAR

STARTCHAR afii10085
ENCODING 227
SWIDTH 600 0
DWIDTH 30 0
BBX 33 29 2 -8
BITMAP
0FF801FF00
0FF801FF00
0180003800
01C0007000
00C0006000
00C000C000
00E001C000
0060038000
0060030000
0070060000
00300E0000
00301C0000
0038180000
0018300000
0018700000
001CE00000
000CC00000
000D800000
000F800000
0007000000
0006000000
000C000000
101C000000
3038000000
3030000000
3060000000
31C0000000
3F80000000
3F00000000
ENDCHAR

STARTCHAR afii10086
ENCODING 228
SWIDTH 600 0
DWIDTH 30 0
BBX 28 38 3 -8
BITMAP
000FE000
000FE000
0000E000
0000C000
0000C000
0000C000
0000C000
00018000
003DBE00
00FFFF00
01C3C380
03818180
070181C0
0E0300C0
0C0300C0
0C0300C0
180300C0
180700C0
180600C0
380600C0
300601C0
30060180
300C0180
300C0380
300C0300
300C0700
380C0600
18181C00
1C3C3800
0FFFF000
07FBE000
00180000
00300000
00300000
00300000
00300000
0FFF8000
0FFF8000
ENDCHAR

STARTCHAR afii10087
ENCODING 229
SWIDTH 600 0
DWIDTH 30 0
BBX 32 21 1 0
BITMAP
01FE03FC
01FE03FC
00700070
003000C0
00380380
001C0700
000E0E00
00073800
0003F000
0001E000
0003E000
0007E000
000E7000
001C3800
00701C00
00E00E00
01C00700
03800300
0E000380
3FE03FE0
3FE03FE0
ENDCHAR

STARTCHAR afii10088
ENCODING 230
SWIDTH 600 0
DWIDTH 30 0
BBX 31 27 1 -6
BITMAP
07FE07FC
07FE0FFC
00C000C0
00C000C0
00C001C0
00C00180
00C00180
01800180
01800180
01800380
01800300
01800300
03000300
03000300
03000600
03000600
07000600
06000600
06000600
3FFFFFE0
3FFFFFE0
00000060
00000060
000000C0
000000C0
000000C0
000000C0
ENDCHAR

STARTCHAR afii10089
ENCODING 231
SWIDTH 600 0
DWIDTH 30 0
BBX 28 21 4 0
BITMAP
3FE07FE0
3FE07FE0
06000600
06000600
06000E00
06000C00
0E000C00
0C000C00
0C000C00
0C003C00
0C00F800
0E07F800
07FF1800
03FC1800
00003000
00003000
00003000
00003000
00003000
001FFE00
001FFE00
ENDCHAR

STARTCHAR afii10090
ENCODING 232
SWIDTH 600 0
DWIDTH 30 0
BBX 36 21 -1 0
BITMAP
03FCFF1FE0
03FCFF3FE0
0060180600
0060180600
0060300600
00C0300C00
00C0300C00
00C0300C00
00C0300C00
00C0600C00
0180601800
0180601800
0180601800
0180601800
0180401800
0300C03000
0300C03000
0300C03000
0300C03000
3FFFFFFE00
3FFFFFFE00
ENDCHAR

STARTCHAR afii10091
ENCODING 233
SWIDTH 600 0
DWIDTH 30 0
BBX 36 27 -1 -6
BITMAP
03FCFF1FE0
03FCFF3FE0
0060180600
0060180600
0060300600
00C0300C00
00C0300C00
00C0300C00
00C0300C00
00C0600C00
0180601800
0180601800
0180601800
0180601800
0180401800
0300C03000
0300C03000
0300C03000
0300C03000
3FFFFFFF80
3FFFFFFF00
0000000300
0000000300
0000000300
0000000600
0000000600
0000000600
ENDCHAR

STARTCHAR afii10092
ENCODING 234
SWIDTH 600 0
DWIDTH 30 0
BBX 28 21 2 0
BITMAP
1FFFE000
1FFFE000
180C0000
300C0000
300C0000
30180000
30180000
60180000
00180000
001FFC00
003FFF00
00300780
003001C0
003000C0
007000C0
006000C0
006000C0
00600180
00600780
0FFFFF00
0FFFF800
ENDCHAR

STARTCHAR afii10093
ENCODING 235
SWIDTH 600 0
DWIDTH 30 0
BBX 36 21 -1 0
BITMAP
03FF800FE0
03FF801FE0
0030000300
0030000300
0060000600
0060000600
0060000600
0060000600
0060000600
00FFF00C00
00FFFC0C00
00C01E0C00
00C0070C00
00C0031C00
0180031800
0180031800
0180031800
0180071800
03001E3000
3FFFFCFE00
3FFFF0FE00
ENDCHAR

STARTCHAR afii10094
ENCODING 236
SWIDTH 600 0
DWIDTH 30 0
BBX 29 21 0 0
BITMAP
03FF8000
03FF8000
00300000
00700000
00600000
00600000
00600000
00600000
00C00000
00FFFC00
00FFFF80
00C003C0
00C000E0
01800060
01800060
01800060
01800060
038000E0
030003C0
3FFFFF80
3FFFFC00
ENDCHAR

STARTCHAR afii10095
ENCODING 237
SWIDTH 600 0
DWIDTH 30 0
BBX 29 23 2 -1
BITMAP
0007F800
031FFE00
03780F00
03E00380
03C001C0
038000C0
070000E0
07000060
02000060
00000060
003FFFE0
003FFFE0
000000E0
000000C0
000001C0
000001C0
00000380
30000700
3C000E00
1E003C00
07C0F800
03FFE000
007F8000
ENDCHAR

STARTCHAR afii10096
ENCODING 238
SWIDTH 600 0
DWIDTH 30 0
BBX 33 23 0 -1
BITMAP
000007E000
07FC1FF000
07FC383800
00C0701C00
00C0C00C00
00C1C00E00
01C1800600
01C3000600
01C3000600
0183000600
01FE000600
03FE000600
0386000600
0306000C00
0306000C00
0706000C00
0706001800
0707001800
0603003000
0603807000
7FE1E1E000
7FE0FF8000
00003E0000
ENDCHAR

STARTCHAR afii10097
ENCODING 239
SWIDTH 600 0
DWIDTH 30 0
BBX 32 21 1 0
BITMAP
0007FFFE
001FFFFE
003C0060
007000C0
00E000C0
00C000C0
00C000C0
00C001C0
00E00180
00700180
003FFF80
000FFF80
00070300
000E0300
00380300
00700300
00E00300
01C00600
03800600
7F007FE0
7E007FE0
ENDCHAR

STARTCHAR afii61352
ENCODING 240
SWIDTH 600 0
DWIDTH 30 0
BBX 36 29 -1 0
BITMAP
00FC1FF000
00FC1FF000
003C018000
003C018780
003C030FC0
003E030CC0
00660318C0
00660318C0
0066031980
0066061980
0066061980
00C7063180
00C3063180
00C3063300
00C30C3F00
01830C1E00
01838C0000
01818C0000
01818C0000
0181980000
0301987C00
0301987C00
0301D80000
0300F00000
0300F00000
0600F00000
0600F00000
3FE0F00000
3FE0600000
ENDCHAR

STARTCHAR afii10071
ENCODING 241
SWIDTH 600 0
DWIDTH 30 0
BBX 27 31 3 -1
BITMAP
001C0380
003C0780
003C0780
00180700
00000000
00000000
00000000
00000000
000FE000
003FF800
00F03C00
01C00E00
03000700
06000380
0C000380
0C000180
18000180
18000180
3FFFFF80
3FFFFF80
30000000
30000000
30000000
30000000
38000000
18000000
1C000600
0E001E00
0780F800
03FFE000
00FF0000
ENDCHAR

STARTCHAR afii10099
ENCODING 242
SWIDTH 600 0
DWIDTH 30 0
BBX 28 39 1 -9
BITMAP
00FC0000
00F80000
00180000
00180000
01FFF800
01FFF800
00300000
00300000
00307C00
0033FF00
00670380
006C01C0
007800C0
007000C0
006000C0
00C000C0
00C000C0
00C00180
00C00180
00C00180
01800180
01800180
01800300
01800300
03000300
03000300
03000300
03000600
3FE00600
3FE00600
00000600
00000E00
00000C00
00000C00
00001800
00003800
0000F000
03FFC000
03FF0000
ENDCHAR

STARTCHAR afii10100
ENCODING 243
SWIDTH 600 0
DWIDTH 30 0
BBX 32 32 1 0
BITMAP
000000C0
00000380
00000700
00000E00
00003800
00007000
00006000
00000000
00000000
00000000
00000000
03FFFFFE
03FFFFFE
000C000C
000C000C
0018000C
0018000C
0018001C
00180018
00180018
00300018
00300000
00300000
00300000
00300000
00600000
00600000
00600000
00600000
00C00000
3FFF8000
3FFF8000
ENDCHAR

STARTCHAR afii10101
ENCODING 244
SWIDTH 600 0
DWIDTH 30 0
BBX 27 23 4 -1
BITMAP
000FF000
003FFCC0
00F01EC0
01C00780
03800380
07000380
0E000180
0C000100
18000000
18000000
1FFFE000
3FFFE000
30000000
30000000
30000000
30000000
38000000
18000700
1C000E00
0E003C00
0F81F000
03FFC000
00FE0000
ENDCHAR

STARTCHAR afii10102
ENCODING 245
SWIDTH 600 0
DWIDTH 30 0
BBX 26 23 3 -1
BITMAP
000FF000
003FFD80
00F01F80
01C00780
01800300
03000300
03000300
03000000
03C00000
01FE0000
007FF000
0003F800
00001C00
00000E00
00000600
18000600
18000600
18000E00
38001C00
3C003800
3F00F000
37FFC000
01FE0000
ENDCHAR

STARTCHAR afii10103
ENCODING 246
SWIDTH 600 0
DWIDTH 30 0
BBX 24 31 3 0
BITMAP
000070
0000E0
0000E0
0000E0
0000E0
000000
000000
000000
000000
000000
00FFC0
00FF80
000180
000180
000180
000300
000300
000300
000300
000300
000600
000600
000600
000600
000E00
000C00
000C00
000C00
000C00
3FFFFE
3FFFFC
ENDCHAR

STARTCHAR afii10104
ENCODING 247
SWIDTH 600 0
DWIDTH 30 0
BBX 24 30 4 0
BITMAP
00701C
00F03C
00F03C
00E038
000000
000000
000000
000000
000000
00FF00
01FF00
000300
000300
000300
000200
000600
000600
000600
000600
000C00
000C00
000C00
000C00
000C00
001800
001800
001800
001800
7FFFF8
7FFFF8
ENDCHAR

STARTCHAR afii10105
ENCODING 248
SWIDTH 600 0
DWIDTH 30 0
BBX 25 41 1 -10
BITMAP
00000700
00000E00
00000E00
00000E00
00000E00
00000000
00000000
00000000
00000000
00000000
00FFFF00
00FFFE00
00000600
00000600
00000600
00000E00
00000C00
00000C00
00000C00
00000C00
00001C00
00001800
00001800
00001800
00001800
00003000
00003000
00003000
00003000
00003000
00006000
00006000
00006000
00006000
0000C000
0000C000
00018000
00038000
000F0000
3FFC0000
3FF00000
ENDCHAR

STARTCHAR afii10106
ENCODING 249
SWIDTH 600 0
DWIDTH 30 0
BBX 32 22 0 -1
BITMAP
003FFFE0
003FFFE0
00030600
00030600
00060600
00060C00
00060C00
00060C00
00060C00
000C1FE0
000C1FF8
000C181C
000C180C
000C180C
0018300C
0018300C
10183018
30303038
307030F0
30E1FFE0
3FC1FF80
3F000000
ENDCHAR

STARTCHAR afii10107
ENCODING 250
SWIDTH 600 0
DWIDTH 30 0
BBX 31 21 0 0
BITMAP
03F9FF00
07FBFF00
00C06000
00C06000
01C06000
0180C000
0180C000
0180C000
0180C000
03FFFF80
03FFFFE0
030180F0
03018038
03018018
07018018
06030018
06030018
06030038
0E0300F0
3FDFFFE0
7F9FFF80
ENDCHAR

STARTCHAR afii10108
ENCODING 251
SWIDTH 600 0
DWIDTH 30 0
BBX 29 30 1 0
BITMAP
00FC0000
00F80000
00180000
00180000
01FFF800
01FFF800
00300000
00300000
0030FE00
0033FF00
00670380
006C01C0
007800C0
007000C0
006000C0
00C000C0
00C000C0
00C00180
00C00180
00C00180
01800180
01800180
01800300
01800300
03000300
03000300
03000300
03000600
3FE03FE0
3FE03FE0
ENDCHAR

STARTCHAR afii10109
ENCODING 252
SWIDTH 600 0
DWIDTH 30 0
BBX 31 32 2 0
BITMAP
00000380
00000700
00000E00
00003C00
00007000
0000E000
00018000
00000000
00000000
00000000
00000000
07FE00F8
07FE03F8
00600798
00600E18
00601C30
00E03830
00C07000
00C0E000
00C3C000
00FF0000
01FF8000
0181C000
0180E000
01806000
01803000
03003000
03001800
03001800
03000C00
3FF00FE0
3FF007E0
ENDCHAR

STARTCHAR section
ENCODING 253
SWIDTH 600 0
DWIDTH 30 0
BBX 29 34 4 -4
BITMAP
0001FFE0
0007FFE0
000C0060
00180040
00300040
002000C0
00600000
00600000
00200000
03F00000
07180000
0C0E0000
18070000
1801C000
1800E000
0C003800
06001C00
07000600
01C00300
00E00180
00780180
001C0180
00070100
00038300
0001FC00
0000F000
00006000
00006000
30006000
30004000
2000C000
20018000
60070000
7FFC0000
ENDCHAR

STARTCHAR afii10110
ENCODING 254
SWIDTH 600 0
DWIDTH 30 0
BBX 33 39 1 -7
BITMAP
0004004000
000C00C000
000C00C000
000E018000
0007078000
0007FE0000
0001F80000
0000000000
0000000000
0000000000
0000000000
0FF801FF00
0FF801FF00
0180003800
01C0007000
00C000E000
00C000C000
00E0018000
0060038000
0060070000
0070060000
00300C0000
00301C0000
0018380000
0018700000
0018600000
000CC00000
000DC00000
000F800000
0007000000
0006000000
000E000000
101C000000
3038000000
3030000000
3060000000
31C0000000
3F80000000
3F00000000
ENDCHAR

STARTCHAR afii10193
ENCODING 255
SWIDTH 600 0
DWIDTH 30 0
BBX 31 27 1 -6
BITMAP
07FE07FC
07FE0FFC
00C000C0
00C000C0
00C001C0
00C00180
00C00180
01800180
01800180
01800380
01800300
01800300
03000300
03000300
03000600
03000600
07000600
06000600
06000600
3FFFFFE0
3FFFFFC0
00060000
00060000
000C0000
000C0000
000C0000
000C0000
ENDCHAR
ENDFONT
